<?xml version="1.0" encoding="utf-8"?>
<svg version="1.1" xmlns="http://www.w3.org/2000/svg" xmlns:xlink="http://www.w3.org/1999/xlink" height="24" width="24">
  <defs>
    <ellipse id="ellipse-0" opacity="1" rx="12" ry="12" cx="12" cy="12"/>
    <path id="path-1" opacity="1" fill-rule="evenodd" d="M9.495819091796875,16.254180908203125 C9.723602294921875,16.48199462890625 9.723602294921875,16.851348876953125 9.495819091796875,17.079132080078125 C9.26800537109375,17.30694580078125 8.898651123046875,17.30694580078125 8.67083740234375,17.079132080078125 L4.004180908203125,12.4124755859375 C3.898651123046875,12.306884765625 3.833343505859375,12.16107177734375 3.833343505859375,12 C3.83331298828125,11.8507080078125 3.890289306640625,11.701416015625 4.004180908203125,11.5875244140625 L8.67083740234375,6.920867919921875 C8.898651123046875,6.69305419921875 9.26800537109375,6.69305419921875 9.495819091796875,6.920867919921875 C9.723602294921875,7.148651123046875 9.723602294921875,7.51800537109375 9.495819091796875,7.745819091796875 L5.824951171875,11.416656494140625 L20.75,11.416656494140625 C21.072174072265625,11.416656494140625 21.333343505859375,11.677825927734375 21.333343505859375,12 C21.333343505859375,12.3221435546875 21.072174072265625,12.58331298828125 20.75,12.58331298828125 L5.824920654296875,12.58331298828125 L9.495819091796875,16.254180908203125Z"/>
  </defs>
  <g opacity="1">
    <g opacity="1">
      <use xlink:href="#ellipse-0" fill="rgb(255,255,255)" fill-opacity="1"/>
    </g>
    <g opacity="1">
      <use xlink:href="#path-1" fill="rgb(153,153,153)" fill-opacity="1"/>
    </g>
  </g>
</svg>